<?xml version="1.0" standalone="no"?>
<!DOCTYPE svg PUBLIC "-//W3C//DTD SVG 20010904//EN"
 "http://www.w3.org/TR/2001/REC-SVG-20010904/DTD/svg10.dtd">
<svg version="1.0" xmlns="http://www.w3.org/2000/svg"
 width="218.000000pt" height="218.000000pt" viewBox="0 0 218.000000 218.000000"
 preserveAspectRatio="xMidYMid meet">
<metadata>
Created by potrace 1.14, written by Peter Selinger 2001-2017
</metadata>
<g transform="translate(0.000000,218.000000) scale(0.100000,-0.100000)"
fill="#000000" stroke="none">
<path d="M1590 2159 c-25 -11 -61 -35 -80 -54 l-35 -34 -82 24 c-250 73 -517
53 -755 -56 -97 -45 -122 -61 -227 -144 -130 -103 -256 -276 -318 -440 -54
-141 -68 -223 -67 -395 1 -194 26 -299 110 -468 138 -278 384 -477 692 -559
86 -23 116 -26 262 -26 145 0 177 3 260 25 l95 25 28 -23 c101 -85 267 3 267
141 0 33 10 46 93 129 148 146 242 308 294 504 23 86 26 116 26 262 0 147 -3
176 -26 265 -34 125 -118 297 -192 389 -30 38 -55 73 -55 76 0 4 8 22 17 41
45 89 18 206 -63 278 -71 63 -161 78 -244 40z m153 -73 c103 -43 128 -177 48
-257 -65 -65 -157 -65 -222 0 -124 123 13 325 174 257z m-543 -36 c41 -5 107
-18 145 -27 l70 -18 -129 -5 c-108 -4 -131 -8 -140 -22 -8 -13 -8 -23 0 -35
10 -16 31 -18 151 -21 l139 -3 11 -42 c38 -139 200 -217 330 -158 l42 19 34
-41 c41 -52 87 -119 87 -129 0 -4 -172 -9 -381 -10 -351 -3 -383 -4 -393 -21
-8 -12 -8 -22 0 -35 10 -16 43 -17 417 -20 l405 -2 25 -63 c29 -73 52 -175 62
-269 l7 -68 -193 -2 c-170 -3 -193 -5 -203 -20 -8 -13 -8 -23 0 -35 10 -16 33
-18 198 -21 l186 -2 0 -31 c0 -93 -61 -287 -123 -389 l-33 -55 -429 -5 c-393
-5 -429 -6 -439 -23 -8 -12 -8 -22 0 -35 10 -16 44 -17 409 -22 l398 -5 -77
-73 -77 -73 -31 22 c-43 31 -123 37 -172 14 -56 -27 -89 -76 -94 -141 -4 -52
-6 -54 -41 -63 -250 -67 -487 -44 -711 67 l-95 47 294 5 c266 5 295 7 305 23
8 12 8 22 0 35 -10 16 -40 17 -360 20 l-349 2 -58 58 -58 57 237 5 c211 4 238
7 248 23 8 12 8 22 0 35 -10 15 -36 17 -278 20 l-266 2 -27 43 c-63 99 -133
309 -133 399 l0 38 616 2 c575 3 618 4 628 21 8 12 8 22 0 35 -10 16 -53 17
-634 20 l-623 2 7 38 c3 20 6 52 6 69 l0 32 146 3 c127 3 148 5 158 21 8 12 8
22 0 35 -10 15 -30 17 -148 20 l-136 3 6 27 c4 15 17 54 29 87 l22 60 388 5
c355 5 389 6 399 22 8 13 8 23 0 35 -10 17 -41 18 -373 21 -198 1 -361 6 -361
11 0 4 22 39 49 77 52 75 160 182 237 235 l49 34 184 5 c161 4 185 7 195 23 8
12 8 22 0 35 -9 13 -30 18 -100 22 l-89 5 95 22 c140 34 216 39 340 23z m431
-1819 c20 -20 29 -39 29 -61 0 -43 -47 -90 -90 -90 -43 0 -90 47 -90 90 0 22
9 41 29 61 20 20 39 29 61 29 22 0 41 -9 61 -29z"/>
<path d="M832 1768 c-16 -16 -15 -43 2 -57 9 -8 76 -11 221 -9 185 3 209 5
219 21 8 12 8 22 0 35 -10 15 -34 17 -220 20 -155 2 -213 -1 -222 -10z"/>
<path d="M792 1288 c-16 -16 -15 -43 2 -57 9 -8 82 -11 241 -9 204 3 229 5
239 21 8 12 8 22 0 35 -10 15 -35 17 -240 20 -170 2 -233 -1 -242 -10z"/>
<path d="M732 788 c-16 -16 -15 -43 2 -57 9 -8 141 -10 471 -9 423 3 459 4
469 21 8 12 8 22 0 35 -10 16 -46 17 -470 20 -349 2 -463 -1 -472 -10z"/>
<path d="M2010 2045 c-26 -32 13 -81 48 -59 34 22 22 74 -18 74 -10 0 -23 -7
-30 -15z"/>
<path d="M2038 249 c-26 -15 -22 -48 7 -61 52 -24 105 35 56 62 -24 12 -41 12
-63 -1z"/>
<path d="M150 65 c-15 -18 -10 -45 13 -59 34 -22 73 27 47 59 -16 19 -44 19
-60 0z"/>
</g>
</svg>
